<?xml version="1.0" encoding="iso-8859-1"?>
<!-- Uploaded to: SVG Repo, www.svgrepo.com, Generator: SVG Repo Mixer Tools -->
<svg version="1.1" id="Layer_1" xmlns="http://www.w3.org/2000/svg" xmlns:xlink="http://www.w3.org/1999/xlink" 
	 viewBox="0 0 512.024 512.024" xml:space="preserve">
<polygon points="424.324,344.776 408.324,344.776 408.324,272.264 103.7,272.264 103.7,343.696 87.7,343.696 87.7,256.264 
	424.324,256.264 "/>
<rect x="248.172" y="167.248" width="16" height="99.496"/>
<polygon style="fill:#AAAAAA;" points="228.1,167.448 283.924,167.448 279.932,139.544 232.092,139.544 "/>
<rect x="214.148" y="167.448" style="fill:#D6D6D6;" width="83.728" height="11.464"/>
<path style="fill:#E50914;" d="M351.7,119.608V11.464C351.7,5.16,346.54,0,340.228,0H171.796c-6.304,0-11.464,5.16-11.464,11.464
	v108.144L351.7,119.608z"/>
<path style="fill:#D6D6D6;" d="M160.324,119.608v9.968c0,6.304,5.16,11.464,11.464,11.464h168.44c6.304,0,11.464-5.16,11.464-11.464
	v-9.968H160.324z"/>
<polygon style="fill:#AAAAAA;" points="67.788,500.536 123.604,500.536 119.62,472.624 71.78,472.624 "/>
<rect x="53.836" y="500.56" style="fill:#D6D6D6;" width="83.728" height="11.464"/>
<path d="M191.388,452.688V344.552c0-6.304-5.16-11.464-11.464-11.464H11.476c-6.304-0.008-11.464,5.152-11.464,11.464v108.144
	L191.388,452.688L191.388,452.688z"/>
<path style="fill:#D6D6D6;" d="M0.012,452.688v9.968c0,6.304,5.16,11.464,11.464,11.464h168.44c6.304,0,11.464-5.16,11.464-11.464
	v-9.968H0.012z"/>
<polygon style="fill:#AAAAAA;" points="388.42,500.536 444.236,500.536 440.244,472.624 392.404,472.624 "/>
<rect x="374.46" y="500.56" style="fill:#D6D6D6;" width="83.728" height="11.464"/>
<path d="M512.012,452.688V344.552c0-6.304-5.16-11.464-11.464-11.464h-168.44c-6.304,0-11.464,5.16-11.464,11.464v108.144
	L512.012,452.688L512.012,452.688z"/>
<path style="fill:#D6D6D6;" d="M320.636,452.688v9.968c0,6.304,5.16,11.464,11.464,11.464h168.44c6.304,0,11.464-5.16,11.464-11.464
	v-9.968H320.636z"/>
</svg>